<?xml version="1.0" encoding="UTF-8"?>
<!-- Generator: Adobe Illustrator 26.1.0, SVG Export Plug-In . SVG Version: 6.00 Build 0)  -->
<svg version="1.1" id="Layer_1" xmlns="http://www.w3.org/2000/svg" xmlns:xlink="http://www.w3.org/1999/xlink" x="0px" y="0px" viewBox="0 0 200 102" style="enable-background:new 0 0 200 102;" xml:space="preserve">
<style type="text/css">
	.st0{fill:#19B394;}
	.st1{fill:#FF9814;}
</style>
<g>
	<path class="st0" d="M195.9,20H4.1H0v4.1v54v4.1h4.1h173.4l15.7,13.8l6.8,6v-9V24.1V20H195.9z M195.9,92.9L179,78.1H4.1v-54h191.8   V92.9z M126.1,61.7l-6.8-17.2h4.5l4.7,13.4l4.1-13.4h4.1l-7.2,20.6c-0.4,1.2-1.1,2.2-2.1,3c-1,0.8-2.3,1.1-3.7,1.1   c-0.4,0-0.7,0-1.1-0.1c-0.4-0.1-0.7-0.1-1.1-0.3V65c0.4,0.1,0.7,0.2,1.1,0.2c0.3,0.1,0.6,0.1,0.9,0.1c0.3,0,0.5-0.1,0.8-0.2   c0.2-0.1,0.5-0.3,0.7-0.6c0.2-0.3,0.4-0.7,0.6-1.1C125.7,63,125.9,62.4,126.1,61.7z M103.3,59.4c0.8,0.8,1.7,1.4,2.9,1.9   s2.4,0.7,3.7,0.7c1.9,0,3.6-0.4,5-1.3c1.4-0.8,2.4-1.9,3-3.2l-3.8-1c-0.3,0.7-0.8,1.3-1.6,1.7c-0.8,0.4-1.6,0.6-2.5,0.6   c-0.6,0-1.1-0.1-1.6-0.3c-0.5-0.2-1-0.5-1.4-0.9c-0.4-0.4-0.8-0.8-1-1.3c-0.3-0.5-0.4-1.1-0.5-1.8h13.3c0-0.2,0.1-0.4,0.1-0.7   c0-0.3,0-0.5,0-0.8c0-1.2-0.2-2.3-0.6-3.3c-0.4-1.1-1-2-1.8-2.8c-0.8-0.8-1.7-1.5-2.8-1.9c-1.1-0.5-2.4-0.7-3.8-0.7   s-2.7,0.2-3.8,0.7c-1.1,0.5-2.1,1.1-2.9,2c-0.8,0.8-1.4,1.8-1.8,2.9c-0.4,1.1-0.6,2.2-0.6,3.5c0,1.2,0.2,2.3,0.6,3.4   C101.9,57.6,102.5,58.5,103.3,59.4z M105.9,49.9c0.3-0.5,0.6-1,1-1.3c0.4-0.4,0.8-0.7,1.4-0.9c0.5-0.2,1.1-0.3,1.7-0.3   c1.2,0,2.2,0.4,3.1,1.2s1.3,1.8,1.4,3.1h-8.9C105.5,51,105.6,50.4,105.9,49.9z M43.7,55.5c0-0.5-0.1-0.9-0.4-1.3   c-0.3-0.3-0.7-0.7-1.2-0.9c-0.5-0.3-1.2-0.5-1.9-0.7c-0.7-0.2-1.6-0.5-2.5-0.7c-1.1-0.3-2.1-0.6-2.9-1c-0.8-0.4-1.5-0.8-2.1-1.3   c-0.5-0.5-1-1.1-1.2-1.7c-0.3-0.6-0.4-1.4-0.4-2.3c0-1.2,0.2-2.2,0.7-3.1c0.4-0.9,1-1.7,1.8-2.3c0.8-0.6,1.7-1.1,2.7-1.4   c1-0.3,2.1-0.5,3.3-0.5c1.6,0,3.1,0.3,4.5,0.8c1.4,0.5,2.6,1.1,3.6,1.8l-2,3.7c-0.2-0.2-0.4-0.4-0.8-0.6c-0.4-0.3-0.9-0.5-1.5-0.8   c-0.6-0.3-1.2-0.5-1.9-0.6c-0.7-0.2-1.4-0.3-2.1-0.3c-1.2,0-2.2,0.2-2.8,0.7c-0.6,0.5-0.9,1.1-0.9,1.9c0,0.5,0.1,0.9,0.3,1.2   c0.2,0.3,0.6,0.6,1,0.8c0.4,0.2,1,0.5,1.7,0.7c0.7,0.2,1.4,0.4,2.3,0.6c1.1,0.3,2.2,0.6,3.1,1c0.9,0.3,1.7,0.8,2.4,1.3   c0.6,0.5,1.1,1.2,1.5,1.9c0.3,0.7,0.5,1.6,0.5,2.7c0,1.2-0.2,2.3-0.7,3.2c-0.5,0.9-1.1,1.6-1.9,2.1c-0.8,0.5-1.7,0.9-2.8,1.2   c-1,0.3-2.1,0.4-3.3,0.4c-1.7,0-3.5-0.3-5.2-0.8c-1.7-0.5-3.2-1.3-4.6-2.2l2-3.9c0.2,0.2,0.6,0.5,1.1,0.8c0.5,0.3,1.1,0.6,1.8,1   c0.7,0.3,1.5,0.6,2.3,0.8c0.9,0.2,1.7,0.3,2.6,0.3C42.5,57.8,43.7,57.1,43.7,55.5z M52.7,60.3c-0.9-1.1-1.4-2.8-1.4-5.1V44.5h4.4   v9.8c0,2.6,1,4,2.9,4c0.9,0,1.7-0.3,2.5-0.8c0.8-0.5,1.4-1.3,2-2.3V44.5h4.4v12.1c0,0.5,0.1,0.8,0.2,1c0.2,0.2,0.4,0.3,0.8,0.3v3.7   c-0.4,0.1-0.8,0.1-1.1,0.2c-0.3,0-0.6,0-0.8,0c-0.8,0-1.4-0.2-1.9-0.5c-0.5-0.4-0.8-0.9-0.9-1.5l-0.1-1.4c-0.8,1.2-1.7,2.1-3,2.7   c-1.2,0.6-2.5,0.9-4,0.9C55,62,53.7,61.4,52.7,60.3z M76.2,61.7h-4.4V44.5h4v3.7c0.3-0.6,0.7-1.1,1.1-1.6c0.4-0.5,0.9-0.9,1.3-1.2   c0.5-0.3,1-0.6,1.5-0.8c0.5-0.2,1-0.3,1.4-0.3c0.2,0,0.4,0,0.5,0s0.2,0,0.3,0v4c-1.3,0-2.5,0.3-3.6,0.8c-1.1,0.5-1.8,1.2-2.3,2.2   V61.7z M89.1,61.7l-6.3-17.2h4.5l4.4,13.6l4.4-13.6h4.1l-6.3,17.2H89.1z"/>
	<path class="st1" d="M135.9,56.9c0.3,0.2,0.8,0.5,1.5,0.7c0.7,0.3,1.6,0.4,2.5,0.4c0.9,0,1.7-0.2,2.2-0.5c0.5-0.3,1-0.8,1.2-1.5   c0.3-0.7,0.5-1.5,0.6-2.4c0.1-1,0.1-2.1,0.1-3.4V38.4h4.5v11.8c0,1.8-0.1,3.4-0.3,4.8c-0.2,1.5-0.6,2.7-1.2,3.7   c-0.6,1-1.5,1.8-2.6,2.4c-1.1,0.6-2.7,0.9-4.6,0.9c-2,0-3.7-0.5-5.1-1.4L135.9,56.9z M167,44.5c-0.2-0.2-0.4-0.4-0.8-0.6   s-0.9-0.5-1.5-0.8c-0.6-0.3-1.2-0.5-1.9-0.6c-0.7-0.2-1.4-0.3-2.1-0.3c-1.2,0-2.2,0.2-2.8,0.7c-0.6,0.5-0.9,1.1-0.9,1.9   c0,0.5,0.1,0.9,0.3,1.2c0.2,0.3,0.6,0.6,1,0.8c0.4,0.2,1,0.5,1.7,0.7c0.7,0.2,1.4,0.4,2.3,0.6c1.1,0.3,2.2,0.6,3.1,1   c0.9,0.3,1.7,0.8,2.4,1.3c0.6,0.5,1.1,1.2,1.5,1.9c0.4,0.7,0.5,1.6,0.5,2.7c0,1.2-0.2,2.3-0.7,3.2c-0.5,0.9-1.1,1.6-1.9,2.1   c-0.8,0.5-1.7,0.9-2.8,1.2c-1,0.3-2.1,0.4-3.3,0.4c-1.7,0-3.5-0.3-5.2-0.8c-1.7-0.5-3.2-1.3-4.6-2.2l2-3.9c0.2,0.2,0.6,0.5,1.1,0.8   c0.5,0.3,1.1,0.6,1.8,1c0.7,0.3,1.5,0.6,2.3,0.8c0.9,0.2,1.7,0.3,2.6,0.3c2.5,0,3.7-0.8,3.7-2.4c0-0.5-0.1-0.9-0.4-1.3   s-0.7-0.7-1.2-0.9c-0.5-0.3-1.2-0.5-1.9-0.7c-0.7-0.2-1.6-0.5-2.5-0.7c-1.1-0.3-2.1-0.6-2.9-1c-0.8-0.4-1.5-0.8-2.1-1.3   c-0.5-0.5-1-1.1-1.2-1.7c-0.3-0.6-0.4-1.4-0.4-2.3c0-1.2,0.2-2.2,0.7-3.1c0.4-0.9,1-1.7,1.8-2.3c0.8-0.6,1.7-1.1,2.7-1.4   c1-0.3,2.1-0.5,3.3-0.5c1.6,0,3.1,0.3,4.5,0.8c1.4,0.5,2.6,1.1,3.6,1.8L167,44.5z"/>
</g>
</svg>